<?xml version="1.0" encoding="UTF-8"?>
<svg version="1.1" xmlns="http://www.w3.org/2000/svg" width="163" height="42">
<path d="M0 0 C1.75 1 1.75 1 3.75 4 C4.471875 3.319375 5.19375 2.63875 5.9375 1.9375 C8.75 0 8.75 0 11.4375 0.125 C13.75 1 13.75 1 15.75 3 C17.07 2.01 18.39 1.02 19.75 0 C23.625 1.75 23.625 1.75 24.75 4 C25.306875 3.34 25.86375 2.68 26.4375 2 C28.75 0 28.75 0 31.5 -0.25 C32.2425 -0.1675 32.985 -0.085 33.75 0 C34.41 1.32 35.07 2.64 35.75 4 C36.306875 3.319375 36.86375 2.63875 37.4375 1.9375 C38.200625 1.298125 38.96375 0.65875 39.75 0 C42.5 0.25 42.5 0.25 44.75 1 C45.70261487 5.76307437 45.83333357 10.1666528 45.75 15 C46.41 15 47.07 15 47.75 15 C47.9975 14.401875 48.245 13.80375 48.5 13.1875 C49.93072525 10.68373081 51.3191582 9.51927612 53.75 8 C54.41 8 55.07 8 55.75 8 C55.75 7.34 55.75 6.68 55.75 6 C53.11 6.33 50.47 6.66 47.75 7 C49.15041521 3.61566324 50.41526605 1.62461397 53.75 0 C56.84433272 -0.09376766 59.78264766 0.09490025 62.75 1 C65.03062828 4.42094242 64.96925007 5.68187222 64.875 9.6875 C64.85695313 10.68136719 64.83890625 11.67523438 64.8203125 12.69921875 C64.79710938 13.45847656 64.77390625 14.21773437 64.75 15 C65.74 15 66.73 15 67.75 15 C67.75 15.99 67.75 16.98 67.75 18 C65.5 20.25 65.5 20.25 62.75 22 C60.4375 21.75 60.4375 21.75 58.75 21 C58.75 20.34 58.75 19.68 58.75 19 C58.0075 19.515625 57.265 20.03125 56.5 20.5625 C53.75 22 53.75 22 51.5 21.875 C49.75 21 49.75 21 48.75 18 C46.77 19.32 44.79 20.64 42.75 22 C41.43 21.34 40.11 20.68 38.75 20 C38.75 16.37 38.75 12.74 38.75 9 C35.6009288 11.7018576 35.6009288 11.7018576 34.75 15 C35.74 15 36.73 15 37.75 15 C37.75 15.99 37.75 16.98 37.75 18 C35.25 20.1875 35.25 20.1875 32.75 22 C30.28199953 20.84826645 28.70216435 19.95216435 26.75 18 C25.1 19.32 23.45 20.64 21.75 22 C19.79296875 21.34765625 19.79296875 21.34765625 17.75 20 C17.17578125 17.43359375 17.17578125 17.43359375 17.0625 14.4375 C17.20828926 10.90685689 17.20828926 10.90685689 15.75 8 C15.56566406 8.53367187 15.38132812 9.06734375 15.19140625 9.6171875 C11.99155672 17.83724541 6.20006445 25.15668688 -1.25 30 C-3.9375 30.25 -3.9375 30.25 -6.25 30 C-7.25 29 -7.25 29 -7.6875 26.1875 C-7.25 23 -7.25 23 -4.375 20.625 C-1.25 19 -1.25 19 0.75 19 C0.01530861 17.36802158 -0.73838122 15.74458693 -1.5 14.125 C-1.91765625 13.22007813 -2.3353125 12.31515625 -2.765625 11.3828125 C-4.37441692 8.80027811 -5.44219328 8.04392814 -8.25 7 C-8.25 6.34 -8.25 5.68 -8.25 5 C-3.13372093 0 -3.13372093 0 0 0 Z M4.75 7 C5.32452746 10.93075644 5.32452746 10.93075644 7.75 14 C7.75 12.02 7.75 10.04 7.75 8 C6.76 7.67 5.77 7.34 4.75 7 Z M26.75 8 C24.38019987 10.95377498 24.38019987 10.95377498 24.75 15 C25.74 15.33 26.73 15.66 27.75 16 C27.75 13.36 27.75 10.72 27.75 8 C27.42 8 27.09 8 26.75 8 Z M56.75 10 C56.09 11.65 55.43 13.3 54.75 15 C55.74 15 56.73 15 57.75 15 C57.75 13.35 57.75 11.7 57.75 10 C57.42 10 57.09 10 56.75 10 Z M-1.25 22 C-1.58 22.66 -1.91 23.32 -2.25 24 C-1.26 23.67 -0.27 23.34 0.75 23 C0.09 22.67 -0.57 22.34 -1.25 22 Z " fill="#00E492" transform="translate(41.25,9)"/>
<path d="M0 0 C1.32 0.66 2.64 1.32 4 2 C4 2.66 4 3.32 4 4 C4.886875 3.319375 5.77375 2.63875 6.6875 1.9375 C10 0 10 0 12.75 0.0625 C15 1 15 1 17 4 C17.37569856 7.75698557 17.1642235 8.75366476 15 12 C15.680625 12.721875 16.36125 13.44375 17.0625 14.1875 C19 17 19 17 18.859375 19.4375 C17.24237028 24.25911406 13.43043151 26.78478425 9 29 C4.92224932 29.55605691 1.08469539 29.43542438 -3 29 C-3.33 28.34 -3.66 27.68 -4 27 C-3.67 26.34 -3.34 25.68 -3 25 C-2.92818179 22.28239892 -2.90700494 19.59140612 -2.9375 16.875 C-2.94201172 16.12089844 -2.94652344 15.36679687 -2.95117188 14.58984375 C-2.96296501 12.72652873 -2.98090058 10.86325445 -3 9 C-3.99 8.67 -4.98 8.34 -6 8 C-5.65120368 4.74456771 -4.97866739 3.98126893 -2.4375 1.75 C-1.633125 1.1725 -0.82875 0.595 0 0 Z M5 7 C5 8.98 5 10.96 5 13 C6.65 11.68 8.3 10.36 10 9 C9.67 8.01 9.34 7.02 9 6 C6.9254644 5.8509288 6.9254644 5.8509288 5 7 Z M5 17 C5.33 18.65 5.66 20.3 6 22 C8.97 22.495 8.97 22.495 12 23 C11.72382467 21.05925139 11.72382467 21.05925139 11 19 C8.18490007 16.7226499 8.18490007 16.7226499 5 17 Z " fill="#00E592" transform="translate(16,2)"/>
<path d="M0 0 C1.75 1 1.75 1 3.75 4 C4.306875 3.319375 4.86375 2.63875 5.4375 1.9375 C6.5821875 0.9784375 6.5821875 0.9784375 7.75 0 C10.5 0.25 10.5 0.25 12.75 1 C13.95568053 5.67201205 13.84382426 10.21496292 13.75 15 C14.74 15.33 15.73 15.66 16.75 16 C14.5 18.5 14.5 18.5 11.75 21 C10.43 21 9.11 21 7.75 21 C6.75 20 6.75 20 6.65234375 17.49609375 C6.66394531 16.48675781 6.67554688 15.47742188 6.6875 14.4375 C6.69652344 13.42558594 6.70554688 12.41367187 6.71484375 11.37109375 C6.72644531 10.58863281 6.73804688 9.80617188 6.75 9 C4.5022025 11.05233685 3.7477758 12.00667261 2.75 15 C3.74 15 4.73 15 5.75 15 C4.45700306 17.88437779 3.09058637 19.87219421 0.75 22 C-3.125 20.25 -3.125 20.25 -4.25 18 C-4.47622081 16.29636178 -4.65888473 14.58671299 -4.8125 12.875 C-4.89628906 11.96492188 -4.98007813 11.05484375 -5.06640625 10.1171875 C-5.12699219 9.41851562 -5.18757812 8.71984375 -5.25 8 C-6.24 7.67 -7.23 7.34 -8.25 7 C-8.25 6.34 -8.25 5.68 -8.25 5 C-3.13372093 0 -3.13372093 0 0 0 Z " fill="#00E190" transform="translate(136.25,9)"/>
<path d="M0 0 C-0.60990891 3.55780196 -1.5783681 6.6828589 -3 10 C-2.54625 9.505 -2.0925 9.01 -1.625 8.5 C0 7 0 7 2 7 C2 9.97 2 12.94 2 16 C3.65 16 5.3 16 7 16 C6.835 16.598125 6.67 17.19625 6.5 17.8125 C5.8885876 20.11344336 5.8885876 20.11344336 6 23 C3.75 25.6875 3.75 25.6875 1 28 C-0.32 28 -1.64 28 -3 28 C-5 25 -5 25 -5 22 C-7.97 22 -10.94 22 -14 22 C-14 17.84009556 -13.45845852 16.98051317 -11.140625 13.78125 C-9.81189301 11.70624388 -8.93238314 9.59165878 -8 7.3125 C-6.33693381 3.42328222 -4.70641912 0 0 0 Z M-6 13 C-6.33 13.99 -6.66 14.98 -7 16 C-6.34 16 -5.68 16 -5 16 C-5.33 15.01 -5.66 14.02 -6 13 Z " fill="#00DA8B" transform="translate(123,2)"/>
</svg>
